<?xml version="1.0" encoding="utf-8"?>
<!-- Generator: Adobe Illustrator 25.1.0, SVG Export Plug-In . SVG Version: 6.00 Build 0)  -->
<svg version="1.1" id="Layer_1" xmlns="http://www.w3.org/2000/svg" xmlns:xlink="http://www.w3.org/1999/xlink" x="0px" y="0px"
	 viewBox="0 0 115.8 122.9" style="enable-background:new 0 0 115.8 122.9;" xml:space="preserve">
<style type="text/css">
	.st0{fill-rule:evenodd;clip-rule:evenodd;fill:#808080;}
</style>
<g>
	<path class="st0" d="M89.6,14v7.7h12.2h0v0c3.8,0,7.3,1.6,9.9,4.1c2.5,2.5,4.1,6,4.1,9.8h0v0v73.3v0h0c0,3.8-1.6,7.3-4.1,9.9
		c-2.5,2.5-6,4.1-9.8,4.1v0h0H40.1h0v0c-3.8,0-7.3-1.6-9.9-4.1c-2.5-2.5-4.1-6-4.1-9.8h0v0V92.5H14h0v0c-3.8,0-7.3-1.6-9.9-4.1
		c-2.5-2.5-4.1-6-4.1-9.8h0v0V14v0h0c0-3.8,1.6-7.3,4.1-9.9c2.5-2.5,6-4.1,9.8-4.1v0h0h61.7h0v0c3.8,0,7.3,1.6,9.9,4.1
		C88,6.6,89.6,10.1,89.6,14L89.6,14L89.6,14L89.6,14z M79,21.7V14v0h0c0-0.9-0.4-1.8-1-2.4c-0.6-0.6-1.5-1-2.4-1v0h0H14h0v0
		c-0.9,0-1.8,0.4-2.4,1c-0.6,0.6-1,1.5-1,2.4h0v0v64.6v0h0c0,0.9,0.4,1.8,1,2.4c0.6,0.6,1.5,1,2.4,1v0h0h12.2V35.6v0h0
		c0-3.9,1.6-7.3,4.1-9.9c2.5-2.5,6-4.1,9.8-4.1v0h0L79,21.7L79,21.7z M105.2,108.9V35.6v0h0c0-0.9-0.4-1.8-1-2.4
		c-0.6-0.6-1.5-1-2.4-1v0h0H40.1h0v0c-0.9,0-1.8,0.4-2.4,1c-0.6,0.6-1,1.5-1,2.4h0v0v73.3v0h0c0,0.9,0.4,1.8,1,2.4
		c0.6,0.6,1.5,1,2.4,1v0h0h61.7h0v0c0.9,0,1.8-0.4,2.4-1C104.8,110.7,105.2,109.8,105.2,108.9L105.2,108.9L105.2,108.9L105.2,108.9z
		"/>
</g>
</svg>
