<svg xmlns="http://www.w3.org/2000/svg" xmlns:xlink="http://www.w3.org/1999/xlink" width="40" height="40" viewBox="0 0 40 40"><defs><style>.a{fill:url(#a);}.b{fill:#fff;}</style><linearGradient id="a" x1="0.5" x2="0.5" y2="1" gradientUnits="objectBoundingBox"><stop offset="0" stop-color="#51abf7"/><stop offset="1" stop-color="#2860d7"/></linearGradient></defs><path class="a" d="M40,20A20,20,0,1,0,16.875,39.758V25.781H11.8V20h5.078V15.594c0-5.012,2.984-7.781,7.555-7.781a30.759,30.759,0,0,1,4.477.391v4.922H26.383c-2.484,0-3.258,1.543-3.258,3.125V20h5.547l-.887,5.781h-4.66V39.758A20,20,0,0,0,40,20Z" transform="translate(0)"/><path class="b" d="M317.988,217.969l.887-5.781h-5.547v-3.75c0-1.582.773-3.125,3.258-3.125h2.523v-4.922a30.761,30.761,0,0,0-4.477-.391c-4.57,0-7.555,2.77-7.555,7.781v4.406H302v5.781h5.078v13.977a20.281,20.281,0,0,0,6.25,0V217.969Z" transform="translate(-290.203 -192.188)"/></svg>