<svg id="Facebook_Logo" data-name="Facebook Logo" xmlns="http://www.w3.org/2000/svg" xmlns:xlink="http://www.w3.org/1999/xlink" width="30" height="29.818" viewBox="0 0 30 29.818">
  <defs>
    <linearGradient id="linear-gradient" x1="0.5" x2="0.5" y2="1" gradientUnits="objectBoundingBox">
      <stop offset="0" stop-color="#51abf7"/>
      <stop offset="1" stop-color="#2860d7"/>
    </linearGradient>
  </defs>
  <path id="Trazado_125" data-name="Trazado 125" d="M30,15A15,15,0,1,0,12.656,29.818V19.336H8.848V15h3.809V11.7c0-3.759,2.238-5.836,5.666-5.836a23.069,23.069,0,0,1,3.357.293V9.844H19.787a2.168,2.168,0,0,0-2.443,2.344V15H21.5l-.665,4.336h-3.5V29.818A15,15,0,0,0,30,15Z" transform="translate(0)" opacity="0" fill="url(#linear-gradient)"/>
  <path id="Trazado_126" data-name="Trazado 126" d="M311.664,210.861l.536-3.494h-3.353V205.1a1.747,1.747,0,0,1,1.969-1.889h1.525v-2.975a18.594,18.594,0,0,0-2.706-.236c-2.762,0-4.566,1.674-4.566,4.7v2.663H302v3.494h3.069v8.448a12.257,12.257,0,0,0,3.778,0v-8.448Z" transform="translate(-293.152 -194.141)" fill="#fff"/>
</svg>
