<svg id="users" xmlns="http://www.w3.org/2000/svg" width="23.744" height="21.211" viewBox="0 0 23.744 21.211">
  <g id="Grupo_6840" data-name="Grupo 6840" transform="translate(0 0)">
    <path id="Trazado_16335" data-name="Trazado 16335" d="M19.25,35.829a5.925,5.925,0,0,0-7.373-9.25A5.928,5.928,0,0,0,4.5,35.829,8.422,8.422,0,0,0,0,43.312v2.544a.848.848,0,0,0,.848.848H22.9a.848.848,0,0,0,.848-.848V43.312A8.422,8.422,0,0,0,19.25,35.829ZM15.265,27.2a4.234,4.234,0,0,1,1.743,8.1c-.065.03-.131.057-.2.085a4.158,4.158,0,0,1-.645.2c-.042.009-.085.014-.128.023a4.24,4.24,0,0,1-.746.075c-.113,0-.226-.008-.339-.019a.641.641,0,0,1-.127-.008,4.284,4.284,0,0,1-1.386-.409c-.016-.008-.035-.007-.051-.014-.085-.041-.17-.076-.245-.122.007-.008.011-.018.018-.026a5.949,5.949,0,0,0,.908-1.654l.026-.071a5.982,5.982,0,0,0,.225-.873c.008-.043.014-.085.02-.131a5.414,5.414,0,0,0,0-1.822c-.007-.044-.013-.085-.02-.131a5.983,5.983,0,0,0-.225-.873l-.026-.071A5.95,5.95,0,0,0,13.16,27.8c-.007-.008-.011-.018-.018-.026A4.213,4.213,0,0,1,15.265,27.2ZM4.241,31.44A4.229,4.229,0,0,1,11.4,28.377c.049.048.1.095.145.144a4.36,4.36,0,0,1,.4.488c.037.053.071.109.106.163a4.172,4.172,0,0,1,.311.572c.021.048.037.1.056.146a4.145,4.145,0,0,1,.21.678c.006.025.008.051.013.077a3.992,3.992,0,0,1,0,1.6c-.005.026-.007.052-.013.077a4.136,4.136,0,0,1-.21.678c-.019.048-.035.1-.056.146a4.187,4.187,0,0,1-.311.572c-.035.054-.069.11-.106.163a4.349,4.349,0,0,1-.4.488c-.048.049-.1.1-.145.144a4.233,4.233,0,0,1-1.171.79c-.069.031-.138.06-.209.085a4.266,4.266,0,0,1-.629.2c-.053.012-.109.019-.163.028a4.209,4.209,0,0,1-.7.07H8.434a4.2,4.2,0,0,1-.7-.07c-.054-.009-.109-.016-.163-.028a4.264,4.264,0,0,1-.629-.2L6.736,35.3A4.24,4.24,0,0,1,4.241,31.44ZM15.265,45.008H1.7v-1.7a6.742,6.742,0,0,1,4.51-6.391,5.918,5.918,0,0,0,4.549,0,6.815,6.815,0,0,1,.826.366c.176.091.339.194.509.3.11.069.222.136.328.211.164.116.318.243.47.372.1.085.194.17.286.254.14.132.271.272.4.416.091.1.179.209.263.317.111.142.217.288.315.438.085.127.16.259.235.392s.163.292.234.444.134.318.2.48c.053.141.11.281.154.424.059.2.1.4.142.6.025.12.059.238.077.36a7.014,7.014,0,0,1,.077,1.014v1.7Zm6.784,0H16.961v-1.7c0-.265-.015-.528-.039-.789-.007-.076-.019-.152-.027-.228-.023-.187-.049-.373-.085-.557q-.023-.118-.048-.237-.061-.283-.142-.561c-.018-.061-.034-.123-.053-.183a8.4,8.4,0,0,0-1.022-2.143l-.033-.048q-.219-.325-.467-.628l-.006-.008a7.7,7.7,0,0,0-.547-.608h.035a6.005,6.005,0,0,0,.722.051H15.3a6,6,0,0,0,.668-.043c.07-.009.138-.021.208-.032q.271-.042.534-.108c.05-.013.1-.025.152-.039a5.773,5.773,0,0,0,.678-.231,6.742,6.742,0,0,1,4.513,6.392v1.7Z" transform="translate(-0.001 -25.494)" fill="#03cd6e"/>
  </g>
</svg>
