<svg xmlns="http://www.w3.org/2000/svg" width="20.542" height="22" viewBox="0 0 20.542 22">
  <g id="supermarket" transform="translate(-16.972)">
    <g id="Grupo_6842" data-name="Grupo 6842" transform="translate(16.972)">
      <g id="Grupo_6841" data-name="Grupo 6841">
        <path id="Trazado_16336" data-name="Trazado 16336" d="M36.054,3.045V2.19A2.192,2.192,0,0,0,33.864,0h-6.09a2.175,2.175,0,0,0-1.548.641L17.613,9.254a2.19,2.19,0,0,0,0,3.1l.875.875a2.207,2.207,0,0,0-.057.5,2.175,2.175,0,0,0,.641,1.548l6.09,6.09a2.192,2.192,0,0,0,3.1,0l8.613-8.613a2.175,2.175,0,0,0,.641-1.548V5.109A2.193,2.193,0,0,0,36.054,3.045ZM18.646,11.318a.73.73,0,0,1,0-1.032l8.613-8.613a.725.725,0,0,1,.516-.214h6.09a.731.731,0,0,1,.73.73v.73h-5.36a2.175,2.175,0,0,0-1.548.641l-8.4,8.4Zm17.194.4-8.613,8.613a.731.731,0,0,1-1.032,0l-6.09-6.09a.73.73,0,0,1,0-1.032l8.613-8.613a.725.725,0,0,1,.516-.214h6.09a.731.731,0,0,1,.73.73V11.2h0A.725.725,0,0,1,35.84,11.715Z" transform="translate(-16.972)" fill="#03cd6e"/>
      </g>
    </g>
    <g id="Grupo_6844" data-name="Grupo 6844" transform="translate(30.215 5.839)">
      <g id="Grupo_6843" data-name="Grupo 6843">
        <path id="Trazado_16337" data-name="Trazado 16337" d="M327.355,135.891a2.19,2.19,0,1,0,2.19,2.19A2.192,2.192,0,0,0,327.355,135.891Zm0,2.92a.73.73,0,1,1,.73-.73A.731.731,0,0,1,327.355,138.811Z" transform="translate(-325.165 -135.891)" fill="#03cd6e"/>
      </g>
    </g>
  </g>
</svg>
