<svg xmlns="http://www.w3.org/2000/svg" width="40" height="40" viewBox="0 0 40 40"><defs><style>.a{fill:#1da1f2;}.b{fill:#fff;}</style></defs><g transform="translate(0 0)"><circle class="a" cx="20" cy="20" r="20" transform="translate(0 0)"/><path class="b" d="M90.092,123.658A13.669,13.669,0,0,0,103.854,109.9c0-.211,0-.421-.01-.622a9.909,9.909,0,0,0,2.417-2.508,9.817,9.817,0,0,1-2.778.762,4.834,4.834,0,0,0,2.126-2.678,9.794,9.794,0,0,1-3.069,1.174,4.839,4.839,0,0,0-8.365,3.31,4.432,4.432,0,0,0,.13,1.1,13.721,13.721,0,0,1-9.97-5.055,4.834,4.834,0,0,0,1.5,6.45,4.751,4.751,0,0,1-2.187-.6v.06a4.842,4.842,0,0,0,3.882,4.744,4.822,4.822,0,0,1-1.274.171,4.618,4.618,0,0,1-.913-.09,4.829,4.829,0,0,0,4.514,3.36,9.723,9.723,0,0,1-6.008,2.066,8.792,8.792,0,0,1-1.154-.07,13.475,13.475,0,0,0,7.392,2.187" transform="translate(-74.405 -94.123)"/></g></svg>