<svg id="Twitter_Logo" data-name="Twitter Logo" xmlns="http://www.w3.org/2000/svg" width="30" height="30" viewBox="0 0 30 30">
  <circle id="XMLID_4_" cx="15" cy="15" r="15" fill="#1da1f2" opacity="0.02"/>
  <path id="XMLID_1_" d="M88.241,118.86a10.245,10.245,0,0,0,10.315-10.315c0-.158,0-.316-.008-.466a7.428,7.428,0,0,0,1.812-1.88,7.359,7.359,0,0,1-2.083.571,3.623,3.623,0,0,0,1.594-2.007,7.341,7.341,0,0,1-2.3.88,3.627,3.627,0,0,0-6.27,2.481,3.322,3.322,0,0,0,.1.827,10.284,10.284,0,0,1-7.473-3.789A3.624,3.624,0,0,0,85.053,110a3.562,3.562,0,0,1-1.639-.451v.045a3.629,3.629,0,0,0,2.91,3.556,3.615,3.615,0,0,1-.955.128,3.461,3.461,0,0,1-.684-.068,3.62,3.62,0,0,0,3.383,2.519,7.287,7.287,0,0,1-4.5,1.549,6.591,6.591,0,0,1-.865-.053,10.1,10.1,0,0,0,5.541,1.639" transform="translate(-76.483 -96.722)" fill="#fff"/>
</svg>
